<svg xmlns="http://www.w3.org/2000/svg" width="794" height="459" viewBox="0 0 794 459" version="1.1"><path d="M 334.036 217.143 L 334.071 418.500 349.286 427 C 364.645 435.581, 368.688 436.838, 371.452 433.890 C 372.169 433.125, 407.236 371.479, 449.378 296.898 C 497.448 211.826, 526 160.310, 526 158.648 C 526 154.942, 524.163 153.429, 510.248 145.676 C 503.511 141.923, 498 138.653, 498 138.409 C 498 138.165, 500.250 133.974, 503 129.096 C 508.117 120.019, 508.950 116.611, 506.750 113.766 C 505.666 112.364, 339.828 18.022, 335.587 16.395 C 334.141 15.840, 334.003 33.646, 334.036 217.143 M 108.978 98.559 C 107.693 101.937, 107.691 158.057, 108.975 161.435 L 109.950 164 188.725 163.985 C 232.051 163.976, 268.069 163.608, 268.764 163.167 C 269.750 162.541, 269.970 155.114, 269.764 129.432 L 269.500 96.500 189.728 96.244 L 109.955 95.988 108.978 98.559 M 166.930 110.584 C 165.977 111.733, 165.904 112.625, 166.667 113.834 C 167.595 115.306, 170.260 115.500, 189.500 115.500 C 208.740 115.500, 211.405 115.306, 212.333 113.834 C 213.096 112.625, 213.023 111.733, 212.070 110.584 C 210.099 108.209, 168.901 108.209, 166.930 110.584 M 146.211 127.189 C 144.602 128.798, 144.675 131.486, 146.366 132.889 C 147.347 133.703, 159.629 133.948, 190.007 133.761 C 229.015 133.520, 232.368 133.365, 233.386 131.750 C 234.191 130.474, 234.191 129.526, 233.386 128.250 C 232.368 126.635, 229.008 126.480, 189.852 126.239 C 157.684 126.042, 147.128 126.272, 146.211 127.189 M 145.388 145.431 C 145.082 146.230, 144.988 147.697, 145.179 148.692 C 145.509 150.403, 147.876 150.500, 189.514 150.500 L 233.500 150.500 233.500 147.500 L 233.500 144.500 189.723 144.239 C 152.206 144.016, 145.866 144.187, 145.388 145.431" stroke="none" fill="#ffffff" fill-rule="evenodd"/><path d="M 622 158.369 C 613.668 160.372, 611.835 161.371, 607.142 166.462 C 600.347 173.834, 598.563 178.740, 598.405 190.500 C 598.282 199.566, 597.466 203.623, 589.664 233.946 C 584.931 252.341, 581.223 267.556, 581.424 267.758 C 581.756 268.089, 589.938 268.570, 600.559 268.881 C 607.200 269.076, 607.707 269.979, 609.337 284.500 C 610.428 294.227, 610.658 304.401, 610.250 324.905 L 609.704 352.311 612.102 351.581 C 613.421 351.180, 620.800 350.200, 628.500 349.404 C 647.283 347.462, 663.936 345.031, 665.897 343.947 C 667.788 342.901, 686.234 337.966, 690.350 337.405 C 697.932 336.370, 709.063 327.484, 709.209 322.350 C 709.255 320.741, 707.153 314.042, 704.538 307.463 C 699.065 293.691, 680.814 255.621, 679.210 254.629 C 678.616 254.263, 676.450 255.973, 674.397 258.430 C 670.006 263.683, 666.314 265.469, 661.654 264.595 C 655.670 263.472, 652.105 257.242, 654.059 251.321 C 655.435 247.152, 658.726 244.889, 664.836 243.909 C 669.109 243.224, 669.961 243.460, 675 246.730 C 678.025 248.693, 680.860 250.906, 681.300 251.649 C 681.740 252.392, 682.553 253, 683.108 253 C 683.663 253, 689.486 248.652, 696.048 243.338 C 709.885 232.132, 712 228.925, 712 219.152 C 712 212.126, 710.580 208.014, 706.469 203.139 C 703.556 199.684, 664.928 170.086, 655.675 164.219 C 646.212 158.218, 632.519 155.839, 622 158.369 M 677.077 222.210 C 675.573 226.523, 675.676 226.653, 678.500 224 C 681.364 221.310, 681.581 220.437, 679.577 219.668 C 678.639 219.308, 677.786 220.175, 677.077 222.210" stroke="none" fill="#f50057" fill-rule="evenodd"/><path d="M 707.983 436.949 C 707.149 437.438, 702.023 438.334, 696.592 438.939 C 691.161 439.545, 685.197 440.762, 683.339 441.643 C 678.967 443.718, 675.938 448.046, 675.246 453.205 L 674.694 457.316 682.097 456.634 C 691.150 455.800, 712.204 452.023, 713.290 451.037 C 713.725 450.643, 713.609 448.110, 713.032 445.410 C 710.773 434.821, 710.991 435.187, 707.983 436.949 M 601.500 444.861 C 597.229 447.499, 595.119 450.155, 594.387 453.816 L 593.750 457 613.375 457 L 633 457 632.996 450.250 L 632.991 443.500 618.746 443.254 C 606.350 443.040, 604.110 443.248, 601.500 444.861" stroke="none" fill="#002fc1" fill-rule="evenodd"/><path d="M 333.490 216.500 C 333.490 327.600, 333.607 372.902, 333.750 317.170 C 333.893 261.439, 333.893 170.539, 333.750 115.170 C 333.607 59.802, 333.490 105.400, 333.490 216.500 M 168.163 109.878 C 167.427 110.345, 166.977 111.800, 167.163 113.113 L 167.500 115.500 187.500 115.783 C 198.500 115.939, 208.512 115.818, 209.750 115.514 C 212.416 114.860, 212.902 110.560, 210.418 109.607 C 207.983 108.672, 169.677 108.918, 168.163 109.878 M 145.366 128.489 C 145.047 129.320, 145.047 130.680, 145.366 131.511 C 145.873 132.832, 151.435 132.988, 189.723 132.761 L 233.500 132.500 233.500 130 L 233.500 127.500 189.723 127.239 C 151.435 127.012, 145.873 127.168, 145.366 128.489 M 145.930 145.584 C 144.977 146.733, 144.904 147.625, 145.667 148.834 C 146.621 150.346, 150.662 150.500, 189.500 150.500 C 228.338 150.500, 232.379 150.346, 233.333 148.834 C 234.096 147.625, 234.023 146.733, 233.070 145.584 C 231.908 144.184, 226.834 144, 189.500 144 C 152.166 144, 147.092 144.184, 145.930 145.584 M 149.676 164.750 C 171.222 164.900, 206.772 164.900, 228.676 164.750 C 250.579 164.599, 232.950 164.476, 189.500 164.476 C 146.050 164.476, 128.129 164.599, 149.676 164.750" stroke="none" fill="#6c63ff" fill-rule="evenodd"/><path d="M 633.863 83.512 C 622.661 87.094, 614.376 96.152, 613.149 106.157 L 612.500 111.453 619.426 114.772 C 631.112 120.371, 648.100 124.235, 645.091 120.609 C 644.126 119.447, 644.886 119.241, 649.718 119.353 C 652.898 119.427, 656.260 119.115, 657.189 118.660 C 658.571 117.983, 659.002 118.493, 659.559 121.464 C 660.976 129.017, 658.373 136.791, 652.306 143.128 L 648.832 146.757 654.827 147.813 C 669.253 150.354, 676.292 156.581, 695.567 183.854 C 706.499 199.322, 717.302 207.782, 728.943 209.989 C 747.998 213.603, 764.965 194.881, 761.013 174.604 C 756.042 149.102, 727.395 132.745, 699.500 139.480 C 691.250 141.472, 688.717 141.352, 685.495 138.817 C 682.724 136.638, 682.721 136.621, 683.291 127.067 C 684.226 111.376, 681.015 100.963, 672.667 92.615 C 665.253 85.200, 659.200 82.676, 648 82.326 C 641.609 82.126, 636.982 82.514, 633.863 83.512" stroke="none" fill="#ffb000" fill-rule="evenodd"/><path d="" stroke="none" fill="#000000" fill-rule="evenodd"/><path d="M 150.824 95.750 C 172.453 95.900, 207.553 95.900, 228.824 95.750 C 250.096 95.599, 232.400 95.476, 189.500 95.476 C 146.600 95.476, 129.196 95.599, 150.824 95.750 M 270.446 129.500 C 270.447 147.100, 270.583 154.159, 270.749 145.187 C 270.914 136.215, 270.914 121.815, 270.748 113.187 C 270.581 104.559, 270.446 111.900, 270.446 129.500 M 611.609 117.020 C 608.233 125.455, 610.107 134.678, 616.681 141.990 C 621.800 147.684, 627.495 150.260, 635 150.276 C 641.793 150.291, 646.346 148.397, 651.375 143.463 C 656.637 138.300, 658.951 132.834, 658.979 125.500 L 659.001 119.500 652.103 119.500 C 645.843 119.500, 645.290 119.662, 646.137 121.250 C 646.843 122.574, 646.684 123, 645.483 123 C 641.360 123, 628.761 119.435, 622.109 116.387 C 618.044 114.524, 614.381 113, 613.968 113 C 613.555 113, 612.493 114.809, 611.609 117.020 M 168.318 126.749 C 180.317 126.909, 199.667 126.909, 211.318 126.749 C 222.968 126.589, 213.150 126.458, 189.500 126.458 C 165.850 126.459, 156.318 126.590, 168.318 126.749 M 168.318 133.749 C 180.317 133.909, 199.667 133.909, 211.318 133.749 C 222.968 133.589, 213.150 133.458, 189.500 133.458 C 165.850 133.459, 156.318 133.590, 168.318 133.749 M 661.284 244.815 C 657.934 245.291, 654 250.555, 654 254.561 C 654 259.808, 658.621 264.455, 663.839 264.455 C 667.529 264.455, 668.451 263.861, 674.370 257.674 L 680.857 250.893 675.678 247.697 C 670.760 244.661, 667.276 243.963, 661.284 244.815 M 591.487 272.060 C 591.073 273.943, 589.939 275.453, 588.539 275.985 C 580.768 278.940, 579.877 290.817, 587.145 294.575 C 595.097 298.687, 600.829 294.553, 603.887 282.500 C 605.003 278.100, 606.196 273.552, 606.537 272.394 C 607.074 270.573, 606.640 270.202, 603.329 269.655 C 601.223 269.307, 597.848 269.017, 595.829 269.011 C 592.545 269.001, 592.088 269.322, 591.487 272.060 M 685.809 338.524 C 685.521 338.813, 681.058 340.132, 675.892 341.457 C 670.727 342.781, 666.571 344.233, 666.659 344.682 C 667.021 346.547, 695.177 438.510, 695.478 438.811 C 695.658 438.991, 698.549 438.599, 701.903 437.939 C 705.946 437.144, 708 436.261, 708 435.317 C 708 434.042, 693.566 356.203, 690.928 343.250 C 690.124 339.307, 689.419 338, 688.096 338 C 687.126 338, 686.097 338.236, 685.809 338.524 M 627.500 349.560 C 622 350.257, 617.163 350.867, 616.750 350.914 C 615.824 351.020, 615.788 376.478, 616.661 414.337 L 617.322 443 624.161 443 C 630.006 443, 631.001 442.746, 631.004 441.250 C 631.009 439.299, 639.617 358.938, 640.537 352.250 C 641.044 348.567, 640.881 348.019, 639.311 348.146 C 638.315 348.226, 633 348.862, 627.500 349.560" stroke="none" fill="#f4bbbc" fill-rule="evenodd"/><path d="M 20 8.500 L 20 17 12.750 17.100 C 4.030 17.220, 0.613 18.055, 0.206 20.168 C -0.216 22.362, 2.198 23.109, 11.750 23.738 L 20 24.282 20 39.641 L 20 55 15.049 55 C 7.099 55, -0.169 56.882, 0.208 58.843 C 0.543 60.581, 3.850 61.453, 14.250 62.542 L 20 63.144 20 78.424 L 20 93.704 12.250 94.339 C 2.642 95.128, -0 95.840, 0 97.641 C 0 99.610, 3.255 100.623, 12.250 101.454 L 20 102.171 20 117.437 L 20 132.704 11.992 133.321 C 4.004 133.937, 0 135.185, 0 137.060 C 0 138.621, 3.949 139.731, 12.289 140.512 L 20 141.235 20 156.499 L 20 171.763 11.577 172.465 C 6.868 172.857, 2.349 173.791, 1.327 174.583 C -0.442 175.955, -0.442 176.045, 1.327 177.417 C 2.349 178.209, 6.868 179.143, 11.577 179.535 L 20 180.237 20 195.501 L 20 210.765 12.289 211.488 C 3.949 212.269, 0 213.379, -0 214.940 C -0 216.815, 4.004 218.063, 11.992 218.679 L 20 219.296 20 234.569 L 20 249.841 13.250 250.459 C 4.028 251.304, 0.569 252.285, 0.208 254.156 C -0.173 256.137, 2.242 256.839, 12.250 257.661 L 20 258.296 20 273.576 L 20 288.856 14.250 289.458 C 3.919 290.540, 0.542 291.423, 0.214 293.126 C -0.209 295.326, 2.048 296.028, 11.750 296.714 L 20 297.297 20 312.532 C 20 329.876, 20.585 328.857, 10.500 329.086 C 3.907 329.235, 0.579 330.232, 0.206 332.168 C -0.216 334.362, 2.198 335.109, 11.750 335.738 L 20 336.282 20 352.141 L 20 368 12.750 368.100 C 4.030 368.220, 0.613 369.055, 0.206 371.168 C -0.216 373.362, 2.198 374.109, 11.750 374.738 L 20 375.282 20 391.141 L 20 407 13.750 407.006 C 6.192 407.012, -0 408.586, 0 410.500 C 0 412.414, 6.192 413.988, 13.750 413.994 L 20 414 20 422 L 20 430 175.941 430 C 271.693 430, 332.105 429.639, 332.460 429.064 C 333.229 427.820, 333.248 2.211, 332.480 0.967 C 332.099 0.351, 275.280 0, 175.941 0 L 20 0 20 8.500 M 32.590 14.901 C 30.932 16.733, 31.009 16.826, 34.705 17.450 C 42.413 18.752, 42.850 21.156, 35.726 23.074 L 31.537 24.202 34.367 25.684 C 41.779 29.568, 48.356 20.499, 42.427 14.570 C 40.242 12.385, 34.698 12.571, 32.590 14.901 M 5 19.912 C 2.880 20.517, 3.244 20.730, 7.390 21.313 C 15.624 22.470, 20 22.188, 20 20.500 C 20 19.316, 18.683 19.021, 13.750 19.100 C 10.313 19.155, 6.375 19.520, 5 19.912 M 31 20.299 C 31 21.217, 32.100 21.460, 34.750 21.128 C 38.184 20.697, 38.289 20.596, 36 19.929 C 32.141 18.803, 31 18.888, 31 20.299 M 33.200 53.200 C 31.324 55.076, 31.775 56, 34.566 56 C 37.501 56, 41 57.629, 41 58.995 C 41 59.504, 39.087 60.469, 36.750 61.140 C 31.321 62.699, 31.279 62.743, 33.573 64.479 C 36.444 66.650, 39.788 66.303, 42.545 63.545 C 45.544 60.547, 45.649 58.095, 42.927 54.635 C 40.671 51.767, 35.409 50.991, 33.200 53.200 M 7 57.907 C 3.085 58.434, 2.825 58.608, 5 59.243 C 6.375 59.644, 10.313 59.979, 13.750 59.986 C 18.645 59.997, 20 59.675, 20 58.500 C 20 56.894, 15.901 56.707, 7 57.907 M 31 59 C 31 60.270, 34.035 60.270, 36 59 C 37.138 58.264, 36.716 58.027, 34.250 58.015 C 32.462 58.007, 31 58.450, 31 59 M 33.750 92.055 C 31.137 93.615, 31.635 95, 34.809 95 C 38.114 95, 41.589 97.239, 40.648 98.761 C 40.286 99.347, 38.169 100.134, 35.944 100.510 C 31.402 101.277, 31.169 102.972, 35.400 104.467 C 38.920 105.711, 43.095 103.515, 44.431 99.717 C 46.352 94.253, 38.956 88.948, 33.750 92.055 M 109.571 96.571 C 108.209 97.934, 108 102.365, 108 129.916 C 108 159.428, 108.130 161.808, 109.829 163.345 C 111.498 164.855, 118.482 165, 189.674 165 C 263.985 165, 267.769 164.913, 269.345 163.171 C 270.811 161.551, 271 157.743, 271 129.743 C 271 102.349, 270.791 97.934, 269.429 96.571 C 268.027 95.170, 259.400 95, 189.500 95 C 119.600 95, 110.973 95.170, 109.571 96.571 M 7.500 96.960 C 2.192 97.857, 4.680 98.828, 13.252 99.204 C 19.130 99.462, 20.004 99.273, 20.002 97.750 C 20 96.336, 19.184 96.027, 15.750 96.142 C 13.412 96.220, 9.700 96.588, 7.500 96.960 M 31 98 C 31 99.270, 34.035 99.270, 36 98 C 37.138 97.264, 36.716 97.027, 34.250 97.015 C 32.462 97.007, 31 97.450, 31 98 M 33.005 131.795 L 30.663 133.691 34.953 134.267 C 42.439 135.271, 43.011 138.495, 35.904 139.631 C 31.441 140.345, 31.224 141.991, 35.400 143.467 C 38.920 144.711, 43.095 142.515, 44.431 138.717 C 46.565 132.647, 38.207 127.583, 33.005 131.795 M 8 135.959 C 2.423 136.776, 4.332 137.656, 13.250 138.378 C 19.476 138.882, 20 138.772, 20 136.962 C 20 134.826, 17.288 134.599, 8 135.959 M 31 137 C 31 137.550, 32.125 138, 33.500 138 C 34.875 138, 36 137.550, 36 137 C 36 136.450, 34.875 136, 33.500 136 C 32.125 136, 31 136.450, 31 137 M 32.942 170.846 L 30.663 172.691 34.953 173.267 C 37.312 173.583, 39.728 174.328, 40.321 174.921 C 41.981 176.581, 39.882 178.072, 34.953 178.733 L 30.663 179.309 32.942 181.154 C 36.272 183.851, 40.445 183.521, 42.927 180.365 C 44.067 178.916, 45 176.952, 45 176 C 45 175.048, 44.067 173.084, 42.927 171.635 C 40.445 168.479, 36.272 168.149, 32.942 170.846 M 10 174.738 C 4.771 175.189, 2.027 176.995, 6.550 177.009 C 8.172 177.013, 11.862 177.301, 14.750 177.648 C 19.644 178.236, 20 178.133, 20 176.139 C 20 173.860, 20.063 173.869, 10 174.738 M 31 176 C 31 176.550, 32.125 177, 33.500 177 C 34.875 177, 36 176.550, 36 176 C 36 175.450, 34.875 175, 33.500 175 C 32.125 175, 31 175.450, 31 176 M 33.443 209.418 C 31.114 211.121, 31.350 211.363, 36.500 212.566 C 38.974 213.144, 40.500 214.072, 40.500 215 C 40.500 215.928, 38.974 216.856, 36.500 217.434 C 31.350 218.637, 31.114 218.879, 33.443 220.582 C 36.549 222.853, 40.591 222.335, 42.927 219.365 C 45.649 215.905, 45.544 213.453, 42.545 210.455 C 39.788 207.697, 36.334 207.304, 33.443 209.418 M 11.500 213.710 C 4.052 214.230, 2.778 215.239, 8.500 216.085 C 17.694 217.445, 20 217.227, 20 215 C 20 213.693, 19.393 213.062, 18.250 213.180 C 17.288 213.279, 14.250 213.518, 11.500 213.710 M 31 215 C 31 215.550, 32.125 216, 33.500 216 C 34.875 216, 36 215.550, 36 215 C 36 214.450, 34.875 214, 33.500 214 C 32.125 214, 31 214.450, 31 215 M 33.750 248.080 C 30.978 249.694, 31.685 250.771, 35.995 251.499 C 38.192 251.870, 40.286 252.653, 40.648 253.239 C 41.589 254.761, 38.114 257, 34.809 257 C 31.792 257, 31.284 257.884, 33.200 259.800 C 35.409 262.009, 40.671 261.233, 42.927 258.365 C 45.649 254.905, 45.544 252.453, 42.545 249.455 C 39.969 246.878, 36.693 246.366, 33.750 248.080 M 12.500 252.801 C 2.804 253.218, 2.241 254.665, 11.440 255.527 C 19.374 256.270, 20.407 256.061, 19.838 253.828 C 19.588 252.845, 17.680 252.578, 12.500 252.801 M 31 254 C 31 254.550, 32.462 254.993, 34.250 254.985 C 36.716 254.973, 37.138 254.736, 36 254 C 34.035 252.730, 31 252.730, 31 254 M 33.750 287.080 C 31.018 288.671, 31.637 289.488, 36.578 290.810 C 43.116 292.558, 42.173 294.159, 33.137 296.648 C 30.563 297.358, 34.041 300, 37.550 300 C 39.929 300, 41.435 299.262, 42.927 297.365 C 45.649 293.905, 45.544 291.453, 42.545 288.455 C 39.969 285.878, 36.693 285.366, 33.750 287.080 M 4.542 292.906 C 3.107 293.467, 4.042 293.847, 8.042 294.327 C 16.930 295.394, 20 295.182, 20 293.500 C 20 292.308, 18.615 292.014, 13.250 292.070 C 9.537 292.109, 5.619 292.485, 4.542 292.906 M 31 293 C 31 293.550, 32.462 293.993, 34.250 293.985 C 36.716 293.973, 37.138 293.736, 36 293 C 34.035 291.730, 31 291.730, 31 293 M 34.250 326.220 C 31.008 327.784, 31.428 328.432, 36.578 329.810 C 43.116 331.558, 42.173 333.159, 33.137 335.648 C 30.624 336.341, 34.001 339.001, 37.372 338.985 C 41.060 338.967, 42.298 338.265, 43.850 335.316 C 45.572 332.045, 45.261 330.170, 42.545 327.455 C 39.907 324.816, 37.809 324.504, 34.250 326.220 M 4.543 331.906 C 3.059 332.487, 3.756 332.832, 7.433 333.336 C 15.683 334.466, 20 334.179, 20 332.500 C 20 331.308, 18.615 331.014, 13.250 331.070 C 9.537 331.109, 5.619 331.485, 4.543 331.906 M 31 332 C 31 332.550, 32.462 332.968, 34.250 332.930 C 36.974 332.871, 37.176 332.720, 35.500 332 C 32.737 330.813, 31 330.813, 31 332 M 33.949 365.840 L 31.676 367.681 36.410 368.873 C 42.097 370.305, 42.019 371.965, 36.178 373.845 C 31.779 375.261, 31.606 376.520, 35.601 378.038 C 38.710 379.221, 42.421 377.566, 43.890 374.343 C 45.533 370.735, 45.268 369.177, 42.545 366.455 C 39.619 363.528, 37.033 363.343, 33.949 365.840 M 5 370.912 C 2.880 371.517, 3.244 371.730, 7.390 372.313 C 15.624 373.470, 20 373.188, 20 371.500 C 20 370.316, 18.683 370.021, 13.750 370.100 C 10.313 370.155, 6.375 370.520, 5 370.912 M 31 371.299 C 31 372.217, 32.100 372.460, 34.750 372.128 C 38.184 371.697, 38.289 371.596, 36 370.929 C 32.141 369.803, 31 369.888, 31 371.299 M 34.025 404.779 L 31.676 406.681 36.338 407.855 C 38.902 408.501, 41 409.382, 41 409.814 C 41 411.280, 38.609 413, 36.550 413.015 C 35.422 413.024, 33.878 413.424, 33.118 413.906 C 32.033 414.593, 32.302 415.152, 34.374 416.509 C 36.628 417.986, 37.453 418.055, 40.044 416.982 C 45.057 414.905, 46.508 410.004, 43.250 406.153 C 40.649 403.080, 36.826 402.510, 34.025 404.779 M 5 409.912 C 2.727 410.559, 2.863 410.686, 6.500 411.301 C 13.775 412.532, 20 412.163, 20 410.500 C 20 409.316, 18.683 409.021, 13.750 409.100 C 10.313 409.155, 6.375 409.520, 5 409.912 M 31 410.368 C 31 411.613, 31.692 411.818, 34.250 411.331 C 38.197 410.580, 39.068 410, 36.248 410 C 35.102 410, 33.452 409.727, 32.582 409.393 C 31.550 408.997, 31 409.336, 31 410.368 M 620.750 443.723 C 622.538 443.945, 625.462 443.945, 627.250 443.723 C 629.038 443.502, 627.575 443.320, 624 443.320 C 620.425 443.320, 618.962 443.502, 620.750 443.723 M 487.564 456.770 C 487.254 457.080, 487 457.708, 487 458.167 C 487 458.625, 556.075 459, 640.500 459 C 773.551 459, 794 458.808, 794 457.558 C 794 456.307, 773.645 456.121, 641.064 456.161 C 556.948 456.186, 487.873 456.460, 487.564 456.770" stroke="none" fill="#6a3430" fill-rule="evenodd"/></svg>